<?xml version="1.0" standalone="no"?>
<!DOCTYPE svg PUBLIC "-//W3C//DTD SVG 20010904//EN"
 "http://www.w3.org/TR/2001/REC-SVG-20010904/DTD/svg10.dtd">
<svg version="1.0" xmlns="http://www.w3.org/2000/svg"
 width="337.000000pt" height="337.000000pt" viewBox="0 0 337.000000 337.000000"
 preserveAspectRatio="xMidYMid meet">
<metadata>
Created by potrace 1.11, written by Peter Selinger 2001-2013
</metadata>
<g transform="translate(0.000000,337.000000) scale(0.100000,-0.100000)"
fill="#000000" stroke="none">
<path d="M0 1685 l0 -1685 1685 0 1685 0 0 1685 0 1685 -1685 0 -1685 0 0
-1685z m2149 1550 c288 -30 491 -78 553 -132 16 -14 16 -18 -3 -67 -11 -28
-27 -57 -34 -65 -12 -12 6 -35 123 -156 164 -170 251 -289 332 -450 108 -217
148 -378 157 -628 17 -460 -134 -830 -485 -1191 -209 -214 -460 -344 -782
-405 -109 -21 -316 -30 -457 -20 -508 36 -882 240 -1159 634 -140 199 -225
390 -276 617 -20 89 -23 130 -23 308 0 178 3 219 23 310 31 137 91 303 148
409 113 211 296 429 431 516 35 22 63 46 63 54 0 8 -12 34 -26 58 l-26 45 22
23 c66 70 309 131 625 155 162 12 617 4 794 -15z"/>
<path d="M1626 2561 l-130 -130 254 -261 254 -261 -260 -260 -259 -259 130
-130 130 -130 -130 -130 -130 -130 130 -130 c71 -72 133 -129 136 -128 4 2
241 236 528 520 l523 516 -521 521 c-287 287 -522 521 -524 521 -1 0 -60 -58
-131 -129z m654 -761 c132 -36 148 -221 25 -280 -75 -36 -141 -15 -192 60 -30
43 -30 103 -2 150 26 42 44 57 84 69 40 12 45 12 85 1z"/>
<path d="M877 2063 l-127 -128 132 -132 133 -133 -130 -130 -130 -130 130
-130 130 -130 262 262 263 263 -257 257 c-142 142 -262 258 -268 258 -6 0 -67
-57 -138 -127z"/>
</g>
</svg>
